<svg id="logo" data-name="logo" xmlns="http://www.w3.org/2000/svg" width="413.7" height="62.63" viewBox="0 0 413.7 62.63">
<defs>
<style>
.cls-1{
    fill-rule:evenodd;
    fill:#ffffff;
}
</style>
</defs>
<title>
logo 01 underscore</title>
<path class="cls-1" d="M390.54,47.12c2.45,2.45,4.3,5.68,4.3,8.46v37c0,2.77-1.85,6-4.3,8.46s-5.68,4.3-8.46,4.3H361.5a3.19,3.19,0,0,1-3.19-3.19V46a3.19,3.19,0,0,1,3.19-3.19h20.58c2.77,0,6,1.85,8.46,4.3h0Zm-2.08,8.46c0-1-1-2.56-2.43-3.95s-2.94-2.43-3.95-2.43H364.69V98.92h17.39c1,0,2.56-1,3.95-2.43s2.43-2.94,2.43-3.95v-37Z" transform="translate(-59.17 -42.82)"/>
<path class="cls-1" d="M433.14,42.82a3.19,3.19,0,0,1,0,6.38H412.56V67.57h15.8a3.19,3.19,0,0,1,0,6.38h-15.8v25h20.58a3.19,3.19,0,0,1,0,6.38H409.37a3.19,3.19,0,0,1-3.19-3.19V46a3.19,3.19,0,0,1,3.19-3.19h23.77Z" transform="translate(-59.17 -42.82)"/>
<path class="cls-1" d="M339.64,89.93H315.41l-4.74,13.4a3.18,3.18,0,1,1-6-2.12l19.86-56.1a3.19,3.19,0,0,1,6,0h0l19.86,56.1a3.18,3.18,0,1,1-6,2.12l-4.74-13.4h0Zm-22-6.38h19.71L327.52,55.7Z" transform="translate(-59.17 -42.82)"/>
<path class="cls-1" d="M238.14,47.12c2.45,2.45,4.3,5.68,4.3,8.46v37c0,2.77-1.85,6-4.3,8.46s-5.68,4.3-8.46,4.3H209.09a3.19,3.19,0,0,1-3.19-3.19V46a3.19,3.19,0,0,1,3.19-3.19h20.58c2.77,0,6,1.85,8.46,4.3h0Zm-2.08,8.46c0-1-1-2.56-2.43-3.95s-2.94-2.43-3.95-2.43H212.28V98.92h17.39c1,0,2.56-1,3.95-2.43s2.43-2.94,2.43-3.95v-37Z" transform="translate(-59.17 -42.82)"/>
<path class="cls-1" d="M139,89.78H114.82l-4.74,13.4a3.18,3.18,0,0,1-6-2.12L123.93,45a3.19,3.19,0,0,1,6,0h0l19.86,56.1a3.18,3.18,0,0,1-6,2.12L139,89.78h0Zm-22-6.38h19.71l-9.86-27.85Z" transform="translate(-59.17 -42.82)"/>
<path class="cls-1" d="M260.15,102.26a3.19,3.19,0,1,1-6.38,0V46.16a3.19,3.19,0,0,1,6-1.52l15.46,23.74,15.6-24a3.18,3.18,0,0,1,5.84,1.73h0v56.1a3.19,3.19,0,1,1-6.38,0V56.89l-12.38,19a3.18,3.18,0,0,1-5.36,0L260.15,56.89v45.38Z" transform="translate(-59.17 -42.82)"/>
<path class="cls-1" d="M59.17,46a3.19,3.19,0,1,1,6.38,0V67.57H89.32V46a3.19,3.19,0,1,1,6.38,0v56.1a3.19,3.19,0,1,1-6.38,0V74H65.55v28.16a3.19,3.19,0,1,1-6.38,0V46Z" transform="translate(-59.17 -42.82)"/>
<path class="cls-1" d="M164.42,102.11a3.19,3.19,0,1,1-6.38,0V46a3.19,3.19,0,0,1,6.09-1.32l24.06,44.76V46a3.19,3.19,0,1,1,6.38,0v56.1h0a3.18,3.18,0,0,1-6,1.51l-24.16-45v43.44Z" transform="translate(-59.17 -42.82)"/>
<path class="cls-1" d="M445.89,105.3a3.19,3.19,0,0,1,0-6.38h23.79a3.19,3.19,0,1,1,0,6.38H445.89Z" transform="translate(-59.17 -42.82)"/>
</svg>